<svg width="239" height="221" viewBox="0 0 239 221" fill="none" xmlns="http://www.w3.org/2000/svg">
<g clip-path="url(#clip0_169_772)">
<path d="M0.815002 43.2305C6.91737 12.0547 33.462 -8.34201 67.4597 3.32613C93.5829 12.2908 125.978 36.0988 155.521 24.9391C203.411 6.84953 254.295 51.7985 234.685 117.628C216.842 177.528 123.995 223.485 93.9488 160.367C68.9099 107.769 44.3418 126.243 18.8767 104.099C-0.762573 87.0207 -1.24368 53.7482 0.815002 43.2305Z" fill="black"/>
<path d="M55.4262 46.4245C59.149 45.7989 62.8303 44.9474 66.4499 43.8748C65.7672 46.1186 64.4741 48.1283 62.7153 49.6791C60.9565 51.2299 58.8013 52.2607 56.4905 52.6563C54.1797 53.052 51.8045 52.7968 49.6304 51.9193C47.4563 51.0419 45.5689 49.5768 44.1793 47.6877C47.9504 47.4948 51.7062 47.073 55.4262 46.4245Z" fill="#0CBC8B"/>
<path d="M66.8148 38.0639C67.0657 39.5181 67.0584 41.0051 66.7933 42.4566C63.0004 43.6297 59.1323 44.5438 55.2158 45.1929C51.3048 45.8839 47.3516 46.3087 43.3832 46.4642C42.6509 45.1833 42.1499 43.7834 41.903 42.3286C41.7456 41.409 41.6899 40.4748 41.7369 39.543C41.7596 39.0867 41.8076 38.632 41.8808 38.1811C42.302 35.5783 43.5258 33.1723 45.3809 31.2996C47.236 29.4268 49.6297 28.181 52.2273 27.7363C54.8249 27.2915 57.4965 27.6702 59.8685 28.8192C62.2404 29.9683 64.1942 31.8302 65.4564 34.1448C65.6753 34.5458 65.8718 34.9586 66.0449 35.3814C66.3994 36.2445 66.6576 37.1441 66.8148 38.0639Z" fill="#0CBC8B"/>
<path d="M77.3171 37.02C77.7246 39.403 72.985 41.8972 66.4499 43.8747C66.5929 43.4094 66.7075 42.9358 66.7933 42.4566C72.95 40.5056 76.2872 38.4069 76.0861 37.2309C75.8897 36.0823 72.2213 35.2274 66.0459 35.3814C65.8727 34.9586 65.6763 34.5458 65.4574 34.1448C71.9553 33.9133 76.9225 34.7142 77.3171 37.02Z" fill="white"/>
<path d="M66.7933 42.4566C66.7075 42.9358 66.5928 43.4094 66.4498 43.8747C62.8303 44.9474 59.149 45.7989 55.4262 46.4245C51.7062 47.073 47.9503 47.4948 44.1793 47.6877C43.89 47.2962 43.6244 46.8876 43.3841 46.4642C47.3525 46.3087 51.3058 45.8839 55.2167 45.1929C59.133 44.5438 63.0007 43.6296 66.7933 42.4566Z" fill="white"/>
<path d="M44.1793 47.6877C37.3589 47.9966 32.0601 47.2211 31.6524 44.8381C31.258 42.5319 35.6798 40.124 41.8818 38.1811C41.8086 38.632 41.7605 39.0867 41.7378 39.543C35.8628 41.4521 32.687 43.4787 32.8834 44.6272C33.0844 45.8033 36.9327 46.6719 43.3841 46.4642C43.6244 46.8876 43.89 47.2962 44.1793 47.6877Z" fill="white"/>
<path d="M100.203 32.8719C100.76 32.8719 101.211 32.4205 101.211 31.8636C101.211 31.3068 100.76 30.8553 100.203 30.8553C99.6465 30.8553 99.1953 31.3068 99.1953 31.8636C99.1953 32.4205 99.6465 32.8719 100.203 32.8719Z" fill="white"/>
<path d="M101.297 56.5059C102.309 56.5059 103.129 55.685 103.129 54.6724C103.129 53.6597 102.309 52.8388 101.297 52.8388C100.285 52.8388 99.4641 53.6597 99.4641 54.6724C99.4641 55.685 100.285 56.5059 101.297 56.5059Z" fill="white"/>
<path d="M179.459 49.5559C180.471 49.5559 181.292 48.735 181.292 47.7224C181.292 46.7098 180.471 45.8889 179.459 45.8889C178.447 45.8889 177.627 46.7098 177.627 47.7224C177.627 48.735 178.447 49.5559 179.459 49.5559Z" fill="white"/>
<path d="M153.803 76.8336C155.243 76.8336 156.411 75.6654 156.411 74.2244C156.411 72.7834 155.243 71.6153 153.803 71.6153C152.363 71.6153 151.195 72.7834 151.195 74.2244C151.195 75.6654 152.363 76.8336 153.803 76.8336Z" fill="white"/>
<path d="M70.8239 95.3295C71.3479 95.3295 71.7726 94.9045 71.7726 94.3803C71.7726 93.856 71.3479 93.431 70.8239 93.431C70.2999 93.431 69.8751 93.856 69.8751 94.3803C69.8751 94.9045 70.2999 95.3295 70.8239 95.3295Z" fill="white"/>
<path d="M27.8319 65.8473C29.3066 65.8473 30.5022 64.6512 30.5022 63.1757C30.5022 61.7002 29.3066 60.5041 27.8319 60.5041C26.3571 60.5041 25.1616 61.7002 25.1616 63.1757C25.1616 64.6512 26.3571 65.8473 27.8319 65.8473Z" fill="white"/>
<path d="M33.3067 98.8654C34.1278 98.8654 34.7935 98.1995 34.7935 97.378C34.7935 96.5565 34.1278 95.8905 33.3067 95.8905C32.4856 95.8905 31.82 96.5565 31.82 97.378C31.82 98.1995 32.4856 98.8654 33.3067 98.8654Z" fill="white"/>
<path d="M214.364 79.5314C215.829 79.5314 217.016 78.3434 217.016 76.8779C217.016 75.4124 215.829 74.2244 214.364 74.2244C212.899 74.2244 211.712 75.4124 211.712 76.8779C211.712 78.3434 212.899 79.5314 214.364 79.5314Z" fill="white"/>
<path d="M188.133 85.608C188.875 85.608 189.477 85.0061 189.477 84.2636C189.477 83.5211 188.875 82.9192 188.133 82.9192C187.391 82.9192 186.789 83.5211 186.789 84.2636C186.789 85.0061 187.391 85.608 188.133 85.608Z" fill="white"/>
<path d="M31.82 21.2363C32.5621 21.2363 33.1637 20.6344 33.1637 19.8919C33.1637 19.1494 32.5621 18.5475 31.82 18.5475C31.0779 18.5475 30.4763 19.1494 30.4763 19.8919C30.4763 20.6344 31.0779 21.2363 31.82 21.2363Z" fill="white"/>
<path d="M111.223 81.6242C112.198 81.6242 112.988 80.8334 112.988 79.8578C112.988 78.8823 112.198 78.0914 111.223 78.0914C110.248 78.0914 109.457 78.8823 109.457 79.8578C109.457 80.8334 110.248 81.6242 111.223 81.6242Z" fill="white"/>
<path d="M55.6859 79.5317C56.4184 79.5317 57.0122 78.9376 57.0122 78.2048C57.0122 77.472 56.4184 76.8779 55.6859 76.8779C54.9535 76.8779 54.3597 77.472 54.3597 78.2048C54.3597 78.9376 54.9535 79.5317 55.6859 79.5317Z" fill="white"/>
<path d="M194.71 120.325C196.25 120.325 197.499 119.076 197.499 117.534C197.499 115.993 196.25 114.744 194.71 114.744C193.169 114.744 191.92 115.993 191.92 117.534C191.92 119.076 193.169 120.325 194.71 120.325Z" fill="white"/>
<path d="M228.746 99.174C229.652 99.174 230.387 98.439 230.387 97.5323C230.387 96.6256 229.652 95.8905 228.746 95.8905C227.839 95.8905 227.105 96.6256 227.105 97.5323C227.105 98.439 227.839 99.174 228.746 99.174Z" fill="white"/>
<path d="M99.5131 117.301C100.498 117.301 101.297 116.502 101.297 115.516C101.297 114.53 100.498 113.732 99.5131 113.732C98.528 113.732 97.7294 114.53 97.7294 115.516C97.7294 116.502 98.528 117.301 99.5131 117.301Z" fill="white"/>
<path d="M128.424 174.044C129.588 174.044 130.531 173.1 130.531 171.936C130.531 170.771 129.588 169.827 128.424 169.827C127.26 169.827 126.317 170.771 126.317 171.936C126.317 173.1 127.26 174.044 128.424 174.044Z" fill="white"/>
<path d="M193.909 154.193C195.374 154.193 196.561 153.004 196.561 151.539C196.561 150.074 195.374 148.886 193.909 148.886C192.444 148.886 191.257 150.074 191.257 151.539C191.257 153.004 192.444 154.193 193.909 154.193Z" fill="white"/>
<path d="M167.678 160.269C168.42 160.269 169.022 159.667 169.022 158.925C169.022 158.182 168.42 157.58 167.678 157.58C166.936 157.58 166.334 158.182 166.334 158.925C166.334 159.667 166.936 160.269 167.678 160.269Z" fill="white"/>
<path d="M156.411 104.404C157.951 104.404 159.2 103.154 159.2 101.613C159.2 100.071 157.951 98.8217 156.411 98.8217C154.87 98.8217 153.621 100.071 153.621 101.613C153.621 103.154 154.87 104.404 156.411 104.404Z" fill="white"/>
<path d="M214.364 125.634C215.27 125.634 216.005 124.899 216.005 123.992C216.005 123.085 215.27 122.35 214.364 122.35C213.458 122.35 212.723 123.085 212.723 123.992C212.723 124.899 213.458 125.634 214.364 125.634Z" fill="white"/>
<g opacity="0.32">
<path d="M158.276 55.715C158.222 55.6319 158.094 55.4729 157.992 55.3452L157.651 54.9347C157.42 54.6602 157.177 54.385 156.93 54.1136C156.438 53.5676 155.92 53.0347 155.391 52.5108C154.323 51.4602 153.202 50.4654 152.032 49.5303C149.681 47.6331 147.113 46.0214 144.383 44.7291C143.008 44.0768 141.588 43.5273 140.132 43.0851C138.667 42.6302 137.167 42.2959 135.647 42.0856L135.074 42.0012C134.882 41.9756 134.69 41.9647 134.498 41.9456L133.339 41.8438L132.175 41.8091C131.981 41.8057 131.785 41.7929 131.59 41.797L131.006 41.8151C129.433 41.8547 127.865 42.0175 126.317 42.302C127.818 41.7661 129.359 41.3483 130.925 41.0526L131.518 40.9373C131.716 40.9008 131.915 40.8814 132.114 40.8527L133.313 40.6934L134.522 40.6034C134.724 40.5906 134.928 40.5697 135.129 40.5638L135.737 40.5538C137.369 40.5144 139.003 40.6084 140.62 40.8349C142.252 41.0535 143.865 41.3925 145.447 41.8491C148.636 42.7673 151.705 44.06 154.591 45.7002C156.046 46.5181 157.458 47.4108 158.821 48.3746C159.505 48.86 160.181 49.3604 160.843 49.8902C161.176 50.1538 161.506 50.423 161.834 50.7042L162.328 51.1327C162.501 51.2889 162.645 51.4138 162.856 51.6237L163.055 51.8199C163.344 52.1064 163.574 52.447 163.732 52.8224C163.889 53.1979 163.972 53.6007 163.974 54.0079C163.976 54.4151 163.898 54.8188 163.744 55.1958C163.59 55.5728 163.364 55.9158 163.077 56.2053C162.791 56.4947 162.451 56.7249 162.075 56.8827C161.7 57.0404 161.297 57.1227 160.89 57.1248C160.483 57.1269 160.08 57.0488 159.703 56.8949C159.326 56.741 158.983 56.5144 158.694 56.2279C158.538 56.0715 158.398 55.8997 158.276 55.715Z" fill="white"/>
</g>
<path d="M161.219 57.5479C162.983 57.5479 164.413 56.1173 164.413 54.3525C164.413 52.5877 162.983 51.1571 161.219 51.1571C159.455 51.1571 158.025 52.5877 158.025 54.3525C158.025 56.1173 159.455 57.5479 161.219 57.5479Z" fill="white"/>
<path d="M139.564 154.061C151.068 154.061 160.394 144.731 160.394 133.221C160.394 121.711 151.068 112.381 139.564 112.381C128.06 112.381 118.734 121.711 118.734 133.221C118.734 144.731 128.06 154.061 139.564 154.061Z" fill="#952B2B"/>
<g opacity="0.31">
<path d="M132.692 135.63C134.767 135.63 136.449 133.947 136.449 131.871C136.449 129.796 134.767 128.113 132.692 128.113C130.617 128.113 128.935 129.796 128.935 131.871C128.935 133.947 130.617 135.63 132.692 135.63Z" fill="white"/>
</g>
<g opacity="0.31">
<path d="M143.138 126.793C145.994 126.793 148.309 124.477 148.309 121.62C148.309 118.763 145.994 116.447 143.138 116.447C140.283 116.447 137.968 118.763 137.968 121.62C137.968 124.477 140.283 126.793 143.138 126.793Z" fill="white"/>
</g>
<path d="M204.092 82.6262C203.711 83.5955 203.236 84.5249 202.673 85.4009C200.705 88.4494 197.744 90.7225 194.291 91.8344C190.838 92.9463 187.107 92.8284 183.732 91.5007C180.356 90.173 177.543 87.7174 175.772 84.5507C174 81.3841 173.379 77.7016 174.013 74.1285C174.421 71.8538 175.322 69.6959 176.651 67.8061C178.682 64.938 181.614 62.8334 184.98 61.8284C188.346 60.8234 191.951 60.9759 195.221 62.2617C198.49 63.5474 201.234 65.8922 203.015 68.9215C204.796 71.9508 205.51 75.4898 205.045 78.9732C204.875 80.2247 204.555 81.4511 204.092 82.6262Z" fill="#8DDBE0"/>
<path d="M205.044 78.9732L176.651 67.8061C177.941 65.9752 179.612 64.4444 181.548 63.3181L204.513 72.3506C205.164 74.4943 205.345 76.7531 205.044 78.9732Z" fill="#D7E8F4"/>
<path d="M202.673 85.4009C201.487 87.2422 199.928 88.8139 198.096 90.0144L174.224 80.6256C173.699 78.4986 173.627 76.2852 174.012 74.1285L202.673 85.4009Z" fill="#D7E8F4"/>
<path d="M63.8105 98.5378C63.8105 98.5378 65.2763 96.0933 67.1495 95.4414C69.0227 94.7895 68.7202 95.9771 67.708 96.9897C66.6959 98.0024 64.3805 100.086 64.3805 100.086" fill="#B6978B"/>
<path d="M65.0324 97.6704C65.0324 97.6704 68.738 94.6536 69.4033 95.5857C69.4033 95.5857 71.5045 98.4282 71.2613 99.2372C70.8947 100.459 66.5004 102.558 66.5004 102.558L65.0324 97.6704Z" fill="#B6978B"/>
<path d="M71.7058 90.7154C71.6545 90.5901 71.5778 90.4768 71.4805 90.3827C71.3831 90.2886 71.2673 90.2158 71.1404 90.1688C71.0135 90.1218 70.8782 90.1017 70.7431 90.1098C70.608 90.1179 70.476 90.1539 70.3555 90.2156L66.1464 92.3731C65.7707 92.5658 65.4809 92.8925 65.3344 93.2886C65.1878 93.6847 65.1952 94.1215 65.3549 94.5124L65.5089 94.8891L68.3958 101.95C68.494 102.19 68.6834 102.381 68.9224 102.482C69.1614 102.582 69.4304 102.583 69.6703 102.485C69.9102 102.387 70.1014 102.197 70.2017 101.958C70.3019 101.719 70.3032 101.45 70.2051 101.21L67.8323 95.4089C67.7798 95.2803 67.7552 95.142 67.7602 95.0032C67.7653 94.8644 67.7998 94.7283 67.8615 94.6039C67.9233 94.4794 68.0108 94.3696 68.1182 94.2817C68.2257 94.1937 68.3507 94.1297 68.4848 94.0939L71.56 93.2724C71.6942 93.2365 71.8191 93.1725 71.9266 93.0846C72.0341 92.9966 72.1216 92.8868 72.1833 92.7624C72.245 92.638 72.2796 92.5018 72.2846 92.363C72.2897 92.2242 72.2651 92.0859 72.2125 91.9573L71.7058 90.7154Z" fill="#262626"/>
<path d="M49.8492 116.939C49.2321 116.939 48.6265 116.771 48.0974 116.454C47.5682 116.136 47.1354 115.68 46.8452 115.135L37.0472 96.7392L43.055 93.5363L50.8858 108.238L64.1857 97.1559L68.5425 102.391L52.0269 116.152C51.4152 116.661 50.6447 116.939 49.8492 116.939Z" fill="#0CBC8B"/>
<path d="M48.3734 102.842C48.3734 102.842 49.8408 100.398 51.714 99.7457C53.5873 99.0938 53.2844 100.281 52.2723 101.294C51.2601 102.306 48.9448 104.39 48.9448 104.39" fill="#B6978B"/>
<path d="M56.2688 95.0194C56.2176 94.8941 56.1409 94.7807 56.0436 94.6866C55.9463 94.5925 55.8305 94.5197 55.7036 94.4727C55.5767 94.4257 55.4414 94.4056 55.3063 94.4137C55.1712 94.4217 55.0393 94.4578 54.9188 94.5196L50.7097 96.6771C50.334 96.8697 50.0442 97.1963 49.8976 97.5924C49.751 97.9884 49.7583 98.4251 49.9179 98.8161L50.0722 99.1931L52.9591 106.252C53.0572 106.492 53.2466 106.684 53.4856 106.784C53.7246 106.884 53.9936 106.886 54.2335 106.787C54.4734 106.689 54.6645 106.5 54.7648 106.261C54.865 106.021 54.8662 105.752 54.768 105.512L52.3953 99.711C52.3427 99.5825 52.3181 99.4442 52.3232 99.3055C52.3282 99.1667 52.3627 99.0306 52.4244 98.9062C52.4861 98.7818 52.5736 98.672 52.681 98.5841C52.7885 98.4962 52.9134 98.4321 53.0475 98.3963L56.123 97.5748C56.2571 97.5389 56.382 97.4749 56.4895 97.3869C56.5969 97.299 56.6844 97.1891 56.7461 97.0647C56.8078 96.9403 56.8423 96.8042 56.8473 96.6654C56.8523 96.5266 56.8278 96.3883 56.7752 96.2598L56.2688 95.0194Z" fill="#262626"/>
<path d="M49.5951 101.975C49.5951 101.975 53.301 98.9579 53.9679 99.89C53.9679 99.89 56.0687 102.732 55.8258 103.541C55.4593 104.764 51.065 106.862 51.065 106.862L49.5951 101.975Z" fill="#B6978B"/>
<path d="M47.844 217.62L41.3335 216.845C41.6267 214.38 41.9579 211.418 41.9804 210.933C41.9804 210.964 41.9804 210.99 41.9804 211.01H48.5367C48.5352 211.207 48.5352 211.805 47.844 217.62Z" fill="#B6978B"/>
<path d="M43.2939 127.453L43.4971 128.334C43.5596 128.621 43.6392 128.938 43.6804 129.188C43.7765 129.712 43.8811 130.25 43.9673 130.762L44.2152 132.264L44.4362 133.732C44.7241 135.681 44.9654 137.583 45.2036 139.485L46.6017 150.786C47.0503 154.536 47.5352 158.273 48.0029 162.008L49.4911 173.188L49.5174 173.385C49.5421 173.58 49.5557 173.776 49.558 173.972L49.6204 184.319C49.6626 187.768 49.6828 191.217 49.7481 194.665C49.797 198.113 49.8635 201.562 49.9476 205.01L50.0937 210.181L50.1677 212.767L50.2632 215.353L38.7135 215.549L38.721 212.962L38.7069 210.375L38.6757 205.202C38.6368 201.753 38.5859 198.305 38.5231 194.856C38.4697 191.408 38.3732 187.96 38.298 184.512L38.0076 174.169L38.0744 174.953L36.17 163.781C35.5221 160.064 34.9002 156.345 34.2318 152.644C33.5777 148.941 32.8965 145.249 32.1784 141.602C31.8069 139.786 31.4316 137.971 31.0311 136.215L30.7292 134.906L30.4169 133.638L30.0835 132.455C30.0286 132.243 29.9721 132.108 29.918 131.94L29.7576 131.456L43.2939 127.453Z" fill="#262626"/>
<path d="M21.7198 218.405L15.1635 218.383C15.1635 218.383 15.1857 211.61 15.1857 211.01H21.742C21.742 211.612 21.7198 218.405 21.7198 218.405Z" fill="#B6978B"/>
<path d="M19.215 124.346L18.2909 139.872L44.9813 139.558L42.9667 125.813L19.215 124.346Z" fill="#262626"/>
<path d="M32.6427 137.287L32.4382 139.848L32.2181 142.334L31.765 147.281L30.8278 157.136L28.9065 176.816L24.9846 216.15L13.4738 215.177L16.1154 175.762L17.3951 156.061L18.0096 146.222L18.2984 141.319L18.4351 138.879L18.5469 136.511L32.6427 137.287Z" fill="#262626"/>
<path d="M29.6907 220.942C29.8671 220.941 30.0413 220.904 30.2026 220.832C30.3639 220.761 30.5088 220.657 30.6283 220.528C30.7477 220.398 30.8391 220.245 30.8967 220.078C30.9544 219.911 30.977 219.735 30.9633 219.559C30.9443 219.315 30.8561 219.082 30.7091 218.887C30.5621 218.691 30.3624 218.542 30.1335 218.456L22.5022 215.899C22.3544 215.85 22.1977 215.834 22.043 215.851C21.8882 215.868 21.739 215.919 21.6056 215.999C20.5564 216.727 19.3015 217.1 18.0252 217.061C17.0311 216.99 16.0768 216.642 15.2712 216.055C15.2004 215.997 15.1146 215.96 15.0237 215.949C14.9328 215.938 14.8406 215.952 14.7579 215.992C14.6752 216.031 14.6053 216.093 14.5565 216.171C14.5077 216.248 14.482 216.338 14.4823 216.43V220.163C14.4823 220.273 14.504 220.382 14.5462 220.484C14.5885 220.586 14.6504 220.678 14.7284 220.756C14.8064 220.833 14.8989 220.895 15.0008 220.937C15.1026 220.979 15.2117 221 15.3218 220.999L29.6907 220.942Z" fill="#C1D8ED"/>
<path d="M55.8323 220.942C56.0087 220.941 56.1829 220.904 56.3442 220.832C56.5055 220.761 56.6503 220.657 56.7698 220.528C56.8892 220.398 56.9806 220.245 57.0382 220.078C57.0959 219.911 57.1186 219.735 57.1049 219.559C57.0858 219.315 56.9976 219.082 56.8505 218.886C56.7035 218.691 56.5037 218.542 56.2747 218.456L48.6438 215.899C48.4959 215.85 48.3392 215.834 48.1844 215.851C48.0296 215.868 47.8803 215.919 47.7468 215.999C46.6977 216.727 45.4428 217.1 44.1665 217.061C43.1725 216.99 42.2183 216.642 41.4128 216.055C41.342 215.997 41.2562 215.96 41.1653 215.949C41.0744 215.938 40.9822 215.952 40.8995 215.992C40.8168 216.031 40.7469 216.093 40.6981 216.171C40.6493 216.248 40.6236 216.338 40.6239 216.43V220.163C40.6239 220.273 40.6456 220.382 40.6878 220.484C40.7301 220.586 40.792 220.678 40.87 220.756C40.948 220.833 41.0405 220.895 41.1424 220.937C41.2442 220.979 41.3533 221 41.4634 220.999L55.8323 220.942Z" fill="#C1D8ED"/>
<path d="M26.2836 92.1238C26.2836 92.1238 28.662 90.7776 27.9433 84.2174L32.904 83.1554C32.904 83.1554 32.505 89.0655 35.0785 90.8678L26.2836 92.1238Z" fill="#B6978B"/>
<g opacity="0.15">
<path d="M34.0232 89.6643L29.7944 86.6073L33.047 86.4845C33.1715 87.596 33.5026 88.6745 34.0232 89.6643Z" fill="black"/>
</g>
<path d="M44.2367 126.726C42.9289 129.734 17.225 130.983 16.8816 125.692C16.663 122.324 19.629 119.385 19.629 112.823C19.629 106.26 13.594 97.8793 18.5113 92.9597C19.9384 91.5322 22.4017 90.6108 25.4048 90.6076C25.6299 92.36 28.6083 95.3367 32.4485 95.0837C35.3301 94.8932 36.2636 92.3662 36.3448 90.6482C36.7507 90.6545 37.066 90.6607 37.2624 90.6701C47.6217 91.1168 43.0694 102.911 42.9698 111.576C42.8477 121.715 45.5858 123.627 44.2367 126.726Z" fill="#0CBC8B"/>
<path d="M25.0445 81.7442C25.4444 83.7295 26.584 85.5887 28.3601 86.185C30.298 86.8938 32.3797 87.1174 34.4238 86.8362C39.8699 86.239 38.4512 73.8515 35.7934 71.5104C33.1356 69.1692 25.5724 70.9053 24.7579 74.966C24.3361 77.0653 24.6642 79.856 25.0445 81.7442Z" fill="#B6978B"/>
<path d="M33.1047 83.1004C33.1047 83.1004 34.7791 83.2307 35.9377 82.7896C35.9377 82.7896 35.9586 83.8901 34.6408 84.0344C33.3229 84.1787 33.1047 83.1004 33.1047 83.1004Z" fill="white"/>
<path d="M28.5759 76.4769C29.3005 85.5646 28.0779 86.5382 28.0779 86.5382C28.0779 86.5382 23.4573 83.9279 22.7154 78.4794C22.0189 73.3711 25.7101 70.2428 28.244 69.6025C37.8737 67.1698 39.1843 75.9662 39.1843 75.9662C34.3688 77.3458 27.5322 76.688 27.5322 76.688" fill="#0F1011"/>
<path d="M30.4759 80.7134C30.5034 80.9639 30.4814 81.2174 30.411 81.4594C30.3405 81.7014 30.2232 81.9271 30.0656 82.1237C29.908 82.3204 29.7132 82.484 29.4924 82.6053C29.2716 82.7266 29.029 82.8032 28.7786 82.8307C28.5282 82.8582 28.2749 82.8361 28.033 82.7657C27.7911 82.6953 27.5655 82.5778 27.369 82.4202C27.1724 82.2625 27.0089 82.0676 26.8877 81.8467C26.7664 81.6258 26.6899 81.3831 26.6623 81.1326C26.6305 80.8814 26.6495 80.6263 26.7183 80.3827C26.787 80.139 26.9041 79.9116 27.0624 79.7141C27.2208 79.5167 27.4173 79.3531 27.6402 79.2331C27.8631 79.1132 28.1078 79.0394 28.3598 79.016C29.726 78.9329 30.3607 79.661 30.4759 80.7134Z" fill="#B6978B"/>
<path d="M20.4645 78.6993C22.8795 78.6993 24.8372 76.7406 24.8372 74.3244C24.8372 71.9082 22.8795 69.9495 20.4645 69.9495C18.0495 69.9495 16.0917 71.9082 16.0917 74.3244C16.0917 76.7406 18.0495 78.6993 20.4645 78.6993Z" fill="#0F1011"/>
<path d="M36.3445 90.6482C36.2633 92.3662 35.3298 94.8932 32.4482 95.0837C28.608 95.3367 25.6296 92.36 25.4045 90.6076H25.4135C29.195 90.6076 34.14 90.6151 36.3445 90.6482Z" fill="#B6978B"/>
<path d="M32.4026 118.492C31.8422 118.492 31.2904 118.354 30.7962 118.09C30.3019 117.826 29.8805 117.444 29.5693 116.978L17.265 98.549L22.9256 94.7657L33.4275 110.493L49.3097 100.929L52.8202 106.764L34.1553 118.004C33.6265 118.323 33.0204 118.492 32.4026 118.492Z" fill="#0CBC8B"/>
<g opacity="0.15">
<path d="M34.8699 81.9975C34.8329 81.9975 34.797 81.9844 34.7687 81.9604C34.7405 81.9364 34.7216 81.9032 34.7156 81.8666C34.7096 81.83 34.7168 81.7925 34.7359 81.7607C34.7551 81.7289 34.7848 81.705 34.82 81.6932L35.7322 81.3856L35.0495 79.9699C35.0399 79.9514 35.0341 79.9311 35.0324 79.9103C35.0308 79.8895 35.0333 79.8686 35.0399 79.8488C35.0465 79.829 35.057 79.8107 35.0708 79.795C35.0846 79.7793 35.1013 79.7666 35.1201 79.7575C35.1389 79.7484 35.1593 79.7432 35.1802 79.7421C35.201 79.7411 35.2218 79.7442 35.2414 79.7513C35.2611 79.7585 35.279 79.7695 35.2943 79.7837C35.3096 79.7979 35.3219 79.815 35.3304 79.8341L36.0897 81.4093C36.0994 81.4292 36.1046 81.451 36.1052 81.4731C36.1058 81.4952 36.1017 81.5173 36.0932 81.5377C36.0846 81.558 36.0719 81.5764 36.0557 81.5915C36.0396 81.6065 36.0204 81.618 35.9995 81.6251L34.9199 81.9893C34.9038 81.9947 34.8869 81.9975 34.8699 81.9975Z" fill="black"/>
</g>
<path d="M71.2625 99.2384C71.2272 99.3447 71.1756 99.4448 71.1095 99.5351C70.7036 99.9381 69.3368 100.427 68.9334 100.222C68.2778 99.89 67.2104 97.8359 67.0262 96.9582C66.8545 96.1367 68.3062 95.5807 68.4935 95.5026C68.5 95.5011 68.5062 95.499 68.5123 95.4963C68.9213 95.3652 69.2459 95.3652 69.4052 95.5869C69.4052 95.5869 71.506 98.4263 71.2625 99.2384Z" fill="#B6978B"/>
<path d="M39.532 74.786L29.8439 75.8482C29.528 75.8828 29.3 76.1671 29.3346 76.4832L29.8553 81.2372C29.8899 81.5533 30.1741 81.7814 30.49 81.7468L40.1781 80.6845C40.494 80.6499 40.722 80.3656 40.6874 80.0496L40.1667 75.2955C40.132 74.9795 39.8479 74.7513 39.532 74.786Z" fill="#D7E8F4"/>
<path d="M41.0821 74.6162L31.394 75.6784C31.0781 75.713 30.8501 75.9973 30.8847 76.3134L31.4055 81.0674C31.4401 81.3835 31.7242 81.6116 32.0401 81.577L41.7282 80.5147C42.0441 80.4801 42.2722 80.1958 42.2375 79.8798L41.7168 75.1257C41.6822 74.8097 41.398 74.5815 41.0821 74.6162Z" fill="#262626"/>
<path d="M30.3914 77.92L22.6884 79.1255L22.8813 80.3599L30.5844 79.1545L30.3914 77.92Z" fill="#D7E8F4"/>
</g>
<defs>
<clipPath id="clip0_169_772">
<rect width="239" height="221" fill="white"/>
</clipPath>
</defs>
</svg>
